<svg xmlns="http://www.w3.org/2000/svg" width="512" height="512" fill-rule="evenodd" clip-rule="evenodd" image-rendering="optimizeQuality" shape-rendering="geometricPrecision" text-rendering="geometricPrecision" viewBox="0 0 512 512" id="tiktok">
  <path fill-rule="nonzero" d="M371.86 186.2l0.02 54.95c-19.99,1.15 -43.65,-4.69 -60.8,-15.38l-0.06 73.58c0.38,27.67 -8.58,54.98 -30.52,73.05 -13.86,11.42 -31.64,17.89 -51.81,18.17 -59.64,0.81 -98.85,-50.43 -86.19,-106.97 11.22,-50.04 51.29,-73.88 101.85,-65.9 0,19.64 0.03,39.27 0.03,58.9 -20.3,-2.98 -43.01,-1.99 -46.77,23.57 -2.72,18.49 8.16,33.43 27.65,33.73 23.38,0.37 30.74,-17.21 30.74,-37.1l0 -175.38 55.14 0.28c0.15,41.45 19.95,62.08 60.72,64.5zm-72.12 -52.79l-31.93 -0.16 0 163.55c0,26.73 -12.64,49.34 -42.73,48.87 -26.66,-0.42 -42.89,-21.72 -39.14,-47.2 3.56,-24.26 23.77,-36.58 47.24,-35.18l-0.6 -35.39c-39.34,-4.01 -70.19,20.78 -78.59,58.24 -10.95,48.92 22.93,93.37 74.56,92.66 17.4,-0.24 32.66,-5.75 44.47,-15.49 19.04,-15.67 26.57,-39.88 26.24,-63.83 0,-32.85 0.05,-65.7 0.08,-98.55 19.66,17.55 33.12,25.75 60.77,28.49l-0.01 -32.28c-35.75,-4.19 -56.91,-29.15 -60.36,-63.73z"></path>
</svg>
